Coordinates
version=1
nRows=24
nColumns=24
inDegrees=yes

Units are S.I. units (second, meters, Newtons, ...)
Angles are in degrees.

endheader
time	pelvis_tilt	pelvis_list	pelvis_rotation	pelvis_tx	pelvis_ty	pelvis_tz	hip_flexion_r	hip_adduction_r	hip_rotation_r	knee_angle_r	ankle_angle_r	subtalar_angle_r	mtp_angle_r	hip_flexion_l	hip_adduction_l	hip_rotation_l	knee_angle_l	ankle_angle_l	subtalar_angle_l	mtp_angle_l	lumbar_extension	lumbar_bending	lumbar_rotation
      1.30650000	     -0.41043788	      6.72855843	      0.33106564	      0.20710834	      0.99514140	      0.30299672	     18.59514834	     -7.16372487	     -0.44411749	    -69.45945437	     -0.74992988	     -8.42474252	      1.57352910	      7.88711077	     12.28079395	      4.52800568	     -9.30722665	     -1.33756318	    -18.60083555	     -2.52377873	     -1.00567132	     -5.28968354	      2.51890105
      1.31066667	     -0.31335148	      6.65370395	      0.32131231	      0.21209527	      0.99587551	      0.30292487	     19.06304958	     -7.03680793	     -0.28861786	    -69.20789681	     -0.03449514	     -8.69848555	      1.45992368	      7.29087906	     12.20457767	      4.69766984	     -9.00010405	     -1.23055201	    -18.65827418	     -2.57848699	     -1.13019120	     -5.21501807	      2.45116270
      1.31483333	     -0.25959670	      6.53954207	      0.32427234	      0.21703506	      0.99651712	      0.30283722	     19.56262001	     -6.86819919	     -0.15218010	    -68.89774136	      0.67590378	     -8.85406374	      1.40790128	      6.77415504	     12.08558424	      4.83488222	     -8.75716104	     -1.07842154	    -18.66382154	     -2.60512178	     -1.20938126	     -5.05623996	      2.40959519
      1.31900000	     -0.17684832	      6.43913331	      0.32895567	      0.22196800	      0.99717637	      0.30276328	     20.01461528	     -6.71566466	     -0.02165278	    -68.53529406	      1.36377720	     -9.05570515	      1.33273480	      6.21432409	     11.97972457	      4.98926511	     -8.48762802	     -0.93888683	    -18.67219452	     -2.64234727	     -1.33049360	     -4.93876804	      2.34926996
      1.32316667	     -0.11517372	      6.33124977	      0.34182497	      0.22692736	      0.99778104	      0.30267503	     20.46627880	     -6.56418995	      0.08777750	    -68.11214223	      2.01902814	     -9.20823714	      1.28499397	      5.68227348	     11.86415492	      5.11913691	     -8.23130266	     -0.78170246	    -18.67960235	     -2.66667347	     -1.39396789	     -4.80718681	      2.30089211
      1.32733333	     -0.05795620	      6.23642068	      0.35636568	      0.23183002	      0.99831998	      0.30259306	     20.92022339	     -6.42543934	      0.19974149	    -67.65894868	      2.66033392	     -9.37673275	      1.22484005	      5.16095154	     11.76291293	      5.27305262	     -7.97940747	     -0.63426158	    -18.69007962	     -2.69706670	     -1.48925957	     -4.69250268	      2.23956049
      1.33150000	      0.06884652	      6.14982153	      0.36657777	      0.23674353	      0.99894345	      0.30251291	     21.27528570	     -6.30075545	      0.30294019	    -67.14264844	      3.24336423	     -9.56965097	      1.06789963	      4.54184168	     11.66881576	      5.45354341	     -7.68093598	     -0.51527635	    -18.73326847	     -2.77412783	     -1.66524871	     -4.59272718	      2.13023555
      1.33566667	      0.09589711	      6.02875648	      0.39823755	      0.24161642	      0.99938632	      0.30241898	     21.72523731	     -6.14159661	      0.38251800	    -66.58013911	      3.81604139	     -9.65709328	      1.01250417	      4.07225356	     11.53693519	      5.59072879	     -7.46382711	     -0.34339260	    -18.72754268	     -2.80174614	     -1.71856367	     -4.43455848	      2.09102642
      1.33983333	      0.15659207	      5.93478017	      0.43202938	      0.24647627	      0.99983625	      0.30233512	     22.12203744	     -6.01061952	      0.46876450	    -65.97413825	      4.38283856	     -9.77180831	      0.94278172	      3.56137940	     11.43211266	      5.74111425	     -7.23351519	     -0.17963530	    -18.71801496	     -2.83581069	     -1.81537396	     -4.33616643	      2.02508536
      1.34400000	      0.24671783	      5.85454489	      0.45705316	      0.25134573	      1.00028774	      0.30224593	     22.47535135	     -5.90477447	      0.54275834	    -65.32799430	      4.88314008	     -9.90741747	      0.78598361	      2.99891962	     11.33981539	      5.90236003	     -6.96017833	     -0.03132620	    -18.73107592	     -2.91066037	     -1.95397477	     -4.23755025	      1.90534685
      1.34816667	      0.25994538	      5.77711813	      0.52444830	      0.25617193	      1.00059518	      0.30209123	     22.89725072	     -5.81637718	      0.58304141	    -64.65177783	      5.43553317	     -9.89416207	     -1.56480627	      2.52049735	     11.25885373	      6.18043760	     -6.69058196	      0.03858063	    -18.90564406	     -4.01902450	     -1.99767322	     -4.14277877	      1.73158909
      1.35233333	      0.35698983	      5.66751015	      0.54505959	      0.26102335	      1.00099939	      0.30204473	     23.20221077	     -5.67007454	      0.65011451	    -63.89500650	      5.86078686	     -9.99521651	     -1.60126686	      1.98786048	     11.12532495	      6.23057105	     -6.48739926	      0.29913893	    -18.74787121	     -4.02463562	     -2.14279771	     -4.01299020	      1.73346403
      1.35650000	      0.37791012	      5.58108334	      0.59528724	      0.26582638	      1.00123820	      0.30194520	     23.58409902	     -5.56374534	      0.69825345	    -63.11911915	      6.27530310	    -10.04161807	     -1.62033544	      1.54659469	     11.02254516	      6.35196384	     -6.29958975	      0.49406362	    -18.69972118	     -4.02690910	     -2.19934131	     -3.90860923	      1.68991448
      1.36066667	      0.42633836	      5.50539638	      0.64715862	      0.27063371	      1.00149035	      0.30185206	     23.91584237	     -5.47237912	      0.73546940	    -62.29659317	      6.66305179	    -10.09465345	     -1.64422089	      1.06417988	     10.92837532	      6.48316186	     -6.08699035	      0.67989558	    -18.65385113	     -4.03024434	     -2.29098710	     -3.81697321	      1.61892257
      1.36483333	      0.48763597	      5.43176600	      0.70372556	      0.27544153	      1.00173823	      0.30175046	     24.21266500	     -5.38922417	      0.75848824	    -61.42677840	      7.00969539	    -10.14175890	     -1.67584927	      0.56551045	     10.83473844	      6.62103125	     -5.87036633	      0.85897478	    -18.61337091	     -4.03520876	     -2.39910694	     -3.72812392	      1.52935147
      1.36900000	      0.53882736	      5.35591352	      0.76202377	      0.28024147	      1.00193043	      0.30164693	     24.50545942	     -5.30720906	      0.76990128	    -60.51988322	      7.31692523	    -10.17815248	     -1.70719703	      0.07883981	     10.73729364	      6.75637494	     -5.65366578	      1.03892707	    -18.57279556	     -4.03949280	     -2.50135792	     -3.63474792	      1.44758438
      1.37316667	      0.56904295	      5.29176058	      0.82603347	      0.28502454	      1.00204715	      0.30154302	     24.80866953	     -5.24116106	      0.77345066	    -59.58176323	      7.58955798	    -10.20691043	     -1.74082866	     -0.38193943	     10.65100449	      6.89421446	     -5.44088325	      1.22098875	    -18.53269447	     -4.04346856	     -2.58397596	     -3.56283186	      1.36267486
      1.37733333	      0.60555746	      5.24449689	      0.89283528	      0.28979548	      1.00214185	      0.30142954	     25.08736809	     -5.19648870	      0.77467941	    -58.60482732	      7.83686058	    -10.23105289	     -1.77903676	     -0.84566512	     10.58231113	      7.03454900	     -5.23529472	      1.39765336	    -18.49026736	     -4.04815884	     -2.66573126	     -3.50272396	      1.27148975
      1.38150000	      0.64677880	      5.18879736	      0.96157234	      0.29457527	      1.00222065	      0.30131811	     25.33973763	     -5.14599175	      0.75923136	    -57.58409478	      8.04352129	    -10.25038542	     -1.82220925	     -1.31669789	     10.50217896	      7.17046828	     -5.02702611	      1.57544269	    -18.44530299	     -4.05308478	     -2.75498183	     -3.42929605	      1.17907640
      1.38566667	      0.68304869	      5.14467780	      1.03280179	      0.29934060	      1.00225181	      0.30120611	     25.58206294	     -5.11123783	      0.73746603	    -56.53079088	      8.22186760	    -10.26443494	     -1.86834794	     -1.77947226	     10.43283261	      7.30390427	     -4.82174061	      1.75186532	    -18.39464424	     -4.05783610	     -2.83805471	     -3.37442037	      1.08776064
      1.38983333	      0.69120177	      5.11146059	      1.10443823	      0.30409785	      1.00219027	      0.30109177	     25.84632670	     -5.09209926	      0.70538631	    -55.45682788	      8.37141103	    -10.27751715	     -1.91947754	     -2.21211231	     10.37510855	      7.43574439	     -4.61486714	      1.92986883	    -18.34511079	     -4.06275968	     -2.89638080	     -3.33198692	      0.99625045
      1.39400000	      0.71205114	      5.08246644	      1.17943172	      0.30884662	      1.00213362	      0.30098505	     26.07430808	     -5.08003076	      0.65936154	    -54.34080387	      8.49199571	    -10.28502193	     -1.97680843	     -2.65653318	     10.31936980	      7.56442322	     -4.41003262	      2.10276451	    -18.28997006	     -4.06828320	     -2.96727060	     -3.29664173	      0.90170983
      1.39816667	      0.71960664	      5.05675644	      1.25498502	      0.31359627	      1.00202397	      0.30087114	     26.29940019	     -5.07265431	      0.60901428	    -53.19266740	      8.58624633	    -10.28671088	     -2.03199964	     -3.08478002	     10.26671087	      7.69169529	     -4.21051654	      2.27513854	    -18.23135754	     -4.07268674	     -3.01685586	     -3.25381523	      0.81873503
      1.40233333	      0.71923114	      5.03573873	      1.32998231	      0.31834279	      1.00185978	      0.30076146	     26.52097993	     -5.07640255	      0.53911401	    -52.02257310	      8.65270436	    -10.27678526	     -2.09461819	     -3.50687262	     10.21765186	      7.80859780	     -4.00384975	      2.44826792	    -18.17340120	     -4.07796478	     -3.07390720	     -3.23536594	      0.72868757
